<svg data-v-423bf9ae="" xmlns="http://www.w3.org/2000/svg" viewBox="0 0 89.37142508370536 60" class="font"><!----><!----><!----><g data-v-423bf9ae="" id="7a7a7653-712a-4575-aca2-6c5e69542507" fill="white" transform="matrix(5.714285714285714,0,0,5.714285714285714,-2.799999543598723,-23.65714161736625)"><path d="M0.49 14.43L0.49 14.43L0.49 14.01L0.49 14.01Q0.49 13.80 0.70 13.80L0.70 13.80L0.79 13.80L0.79 13.80Q1.74 13.75 1.74 12.47L1.74 12.47L1.74 6.32L1.74 6.32Q1.74 5.03 0.79 4.98L0.79 4.98L0.70 4.98L0.70 4.98Q0.49 4.98 0.49 4.77L0.49 4.77L0.49 4.35L0.49 4.35Q0.49 4.14 0.70 4.14L0.70 4.14L5.00 4.14L5.00 4.14Q5.22 4.14 5.22 4.35L5.22 4.35L5.22 4.77L5.22 4.77Q5.22 4.98 5.00 4.98L5.00 4.98L4.92 4.98L4.92 4.98Q3.98 5.03 3.98 6.32L3.98 6.32L3.98 12.47L3.98 12.47Q3.98 13.75 4.92 13.80L4.92 13.80L5.00 13.80L5.00 13.80Q5.22 13.80 5.22 14.01L5.22 14.01L5.22 14.43L5.22 14.43Q5.22 14.64 5.00 14.64L5.00 14.64L0.70 14.64L0.70 14.64Q0.49 14.64 0.49 14.43ZM5.97 14.43L5.97 14.43L5.97 14.01L5.97 14.01Q5.97 13.80 6.19 13.80L6.19 13.80L6.28 13.80L6.28 13.80Q7.22 13.75 7.22 12.47L7.22 12.47L7.22 6.32L7.22 6.32Q7.22 4.98 6.20 4.98L6.20 4.98L6.19 4.98L6.19 4.98Q5.97 4.98 5.97 4.78L5.97 4.78L5.97 4.35L5.97 4.35Q5.97 4.14 6.19 4.14L6.19 4.14L10.49 4.14L10.49 4.14Q12.11 4.14 13.38 4.75L13.38 4.75L13.38 4.75Q14.65 5.36 15.39 6.56L15.39 6.56L15.39 6.56Q16.13 7.76 16.13 9.37L16.13 9.37L16.13 9.37Q16.13 10.50 15.82 11.44L15.82 11.44L15.82 11.44Q15.51 12.38 14.89 13.10L14.89 13.10L14.89 13.10Q14.27 13.83 13.24 14.24L13.24 14.24L13.24 14.24Q12.22 14.64 10.88 14.64L10.88 14.64L6.19 14.64L6.19 14.64Q5.97 14.64 5.97 14.43ZM9.45 4.98L9.45 12.40L9.45 12.40Q9.45 12.68 9.46 12.83L9.46 12.83L9.46 12.83Q9.47 12.99 9.53 13.19L9.53 13.19L9.53 13.19Q9.58 13.38 9.69 13.48L9.69 13.48L9.69 13.48Q9.80 13.58 10.00 13.65L10.00 13.65L10.00 13.65Q10.20 13.73 10.49 13.73L10.49 13.73L10.49 13.73Q11.30 13.73 11.90 13.54L11.90 13.54L11.90 13.54Q12.51 13.34 12.91 12.99L12.91 12.99L12.91 12.99Q13.30 12.64 13.55 12.09L13.55 12.09L13.55 12.09Q13.79 11.55 13.90 10.89L13.90 10.89L13.90 10.89Q14 10.23 14 9.37L14 9.37L14 9.37Q14 7.29 12.98 6.14L12.98 6.14L12.98 6.14Q11.97 4.98 10.10 4.98L10.10 4.98L9.45 4.98Z"></path></g><!----><!----></svg>